<svg width="16" height="17" viewBox="0 0 16 17" fill="none" xmlns="http://www.w3.org/2000/svg">
<path fill-rule="evenodd" clip-rule="evenodd" d="M13.7253 15.048H1.96089C1.83076 15.048 1.70595 14.9963 1.61394 14.9043C1.52192 14.8123 1.47022 14.6875 1.47022 14.5574V7.20537H3.43111C3.176 7.57337 3.08978 8.2587 3.08978 8.69426C3.08978 11.3191 5.23022 13.4551 7.86133 13.4551C10.4924 13.4551 12.6329 11.3191 12.6329 8.69426C12.6329 8.2587 12.5716 7.58314 12.2551 7.20537H14.216V14.5583C14.216 14.6884 14.1643 14.8132 14.0723 14.9052C13.9803 14.9972 13.8555 15.0489 13.7253 15.0489M7.86133 5.68359C8.25705 5.68312 8.64898 5.7606 9.01476 5.9116C9.38053 6.06261 9.71298 6.28418 9.99312 6.56366C10.2733 6.84314 10.4956 7.17507 10.6475 7.54048C10.7994 7.9059 10.8778 8.29765 10.8782 8.69337C10.8778 9.08908 10.7994 9.48083 10.6475 9.84625C10.4956 10.2117 10.2733 10.5436 9.99312 10.8231C9.71298 11.1026 9.38053 11.3241 9.01476 11.4751C8.64898 11.6261 8.25705 11.7036 7.86133 11.7031C7.46562 11.7036 7.07368 11.6261 6.70791 11.4751C6.34214 11.3241 6.00969 11.1026 5.72954 10.8231C5.4494 10.5436 5.22705 10.2117 5.07518 9.84625C4.92332 9.48083 4.84491 9.08908 4.84444 8.69337C4.84539 7.89433 5.16364 7.12839 5.72923 6.56397C6.29481 5.99956 7.06141 5.68288 7.86045 5.68359M11.7636 2.79292H13.2347C13.5049 2.79292 13.7244 3.01248 13.7244 3.2827V4.75381C13.7242 4.88364 13.6725 5.00808 13.5807 5.09988C13.4889 5.19168 13.3645 5.24335 13.2347 5.24359H11.7636C11.6337 5.24335 11.5093 5.19168 11.4175 5.09988C11.3257 5.00808 11.274 4.88364 11.2738 4.75381V3.2827C11.2738 3.01248 11.4933 2.79292 11.7636 2.79292ZM13.8222 0.832033H1.86489C1.62026 0.831683 1.37797 0.879533 1.15184 0.97285C0.925712 1.06617 0.720186 1.20312 0.547003 1.37589C0.373821 1.54866 0.236375 1.75386 0.142518 1.97977C0.0486616 2.20567 0.000233282 2.44785 0 2.69248L0 14.6578C0 15.6854 0.835556 16.5183 1.86489 16.5183H13.8213C14.066 16.5186 14.3083 16.4708 14.5344 16.3774C14.7605 16.2841 14.966 16.1472 15.1392 15.9744C15.3124 15.8016 15.4498 15.5964 15.5437 15.3705C15.6376 15.1446 15.686 14.9024 15.6862 14.6578V2.69248C15.6862 1.66492 14.8507 0.832033 13.8213 0.832033" fill="#F1F0F5"/>
</svg>
