<svg width="161" height="26" viewBox="0 0 161 26" fill="none" xmlns="http://www.w3.org/2000/svg">
<path d="M40.8916 15.9334C40.8916 15.4134 40.9344 15.3019 41.2772 15.0048L45.5191 11.5876C45.6477 11.4762 45.6905 11.3648 45.6905 11.2162V10.9191C45.6905 10.6219 45.3906 10.3991 45.0907 10.3991H41.4915C41.1487 10.3991 40.8916 10.1762 40.8916 9.87907V0.52C40.8916 0.222857 41.1487 0 41.4915 0H47.1474C47.4473 0 47.7472 0.222857 47.7472 0.52V8.83907C47.7472 9.13621 48.0043 9.35907 48.3471 9.35907H48.6899C48.8613 9.35907 48.9898 9.32193 49.1184 9.2105L53.702 5.53336C54.0448 5.23621 54.1733 5.19907 54.7303 5.19907H59.4864C63.0856 5.19907 64.8852 6.75907 64.8852 9.87907V15.3753C64.8852 15.8953 64.8424 16.0439 64.4996 16.3039L52.8461 25.6629C52.5033 25.9601 52.3748 25.9972 51.7749 25.9972H46.2904C42.6912 25.9972 40.8927 24.4372 40.8927 21.3172V15.9324L40.8916 15.9334ZM57.4286 10.3991H48.346C48.0032 10.3991 47.7462 10.6219 47.7462 10.9191V20.2781C47.7462 20.5753 48.0032 20.7981 48.346 20.7981H57.4286C57.7286 20.7981 58.0285 20.5753 58.0285 20.2781V10.9191C58.0285 10.6219 57.7286 10.3991 57.4286 10.3991Z" fill="white"/>
<path d="M65.9531 21.3182V15.8219C65.9531 15.3019 65.996 15.1905 66.3388 14.8934L77.9922 5.5343C78.335 5.23715 78.4636 5.20001 79.0634 5.20001H84.9764C88.5756 5.20001 90.3741 6.76001 90.3741 9.88001V15.3762C90.3741 15.8962 90.3313 16.0077 89.9885 16.3048L78.335 25.6639C77.9922 25.961 77.8637 25.9982 77.2638 25.9982H71.3509C67.7517 25.9982 65.9531 24.4382 65.9531 21.3182ZM73.4075 20.7982H82.9186C83.2614 20.7982 83.5185 20.5753 83.5185 20.2782V10.9191C83.5185 10.6219 83.2614 10.3991 82.9186 10.3991H73.4075C73.1076 10.3991 72.8077 10.6219 72.8077 10.9191V20.2782C72.8077 20.5753 73.1076 20.7982 73.4075 20.7982Z" fill="white"/>
<path d="M91.4443 21.3182V15.8219C91.4443 15.3019 91.4872 15.1905 91.83 14.8934L103.483 5.5343C103.826 5.23715 103.955 5.20001 104.555 5.20001H110.467C114.066 5.20001 115.865 6.76001 115.865 9.88001V15.3762C115.865 15.8962 115.823 16.0077 115.48 16.3048L103.826 25.6639C103.483 25.961 103.355 25.9982 102.755 25.9982H96.8431C93.2439 25.9982 91.4443 24.4382 91.4443 21.3182ZM98.8998 20.7982H108.411C108.754 20.7982 109.011 20.5753 109.011 20.2782V10.9191C109.011 10.6219 108.754 10.3991 108.411 10.3991H98.8998C98.5999 10.3991 98.3 10.6219 98.3 10.9191V20.2782C98.3 20.5753 98.5999 20.7982 98.8998 20.7982Z" fill="white"/>
<path d="M113.293 25.1438L118.092 21.3181C118.478 21.021 118.864 20.7981 119.635 20.7981H130.946C131.245 20.7981 131.545 20.5753 131.545 20.2781V14.6695C131.545 14.2981 131.802 14.1124 132.445 14.1124H137.714C138.1 14.1124 138.314 14.2981 138.314 14.6324V15.9324C138.314 16.1924 138.229 16.3781 138.014 16.5638L126.446 25.8486C126.318 25.96 126.189 25.9972 126.018 25.9972H113.679C112.951 25.9972 112.736 25.5886 113.293 25.1429V25.1438ZM117.278 15.339C117.278 15.079 117.364 14.8933 117.578 14.7076L129.189 5.34854C129.317 5.23711 129.446 5.19997 129.617 5.19997H141.271V0.891399C141.271 0.594256 141.528 0.371399 141.871 0.371399H146.67C147.826 0.371399 148.126 0.594256 148.126 0.891399V8.83904C148.126 9.17333 148.298 9.35904 148.64 9.35904C148.855 9.35904 149.026 9.3219 149.24 9.13618L153.911 5.34761C154.039 5.23618 154.168 5.19904 154.296 5.19904H160.294C160.98 5.19904 161.151 5.71904 160.722 6.09047L155.752 10.2505C155.624 10.3619 155.495 10.399 155.324 10.399H148.726C148.383 10.399 148.126 10.6219 148.126 10.919V20.2781C148.126 20.5753 148.383 20.7981 148.726 20.7981H160.294C160.98 20.7981 161.151 21.3181 160.722 21.6895L155.752 25.8495C155.624 25.961 155.495 25.9981 155.324 25.9981H146.67C143.07 25.9981 141.271 24.4381 141.271 21.3181V15.4133C141.271 15.2648 141.314 15.1533 141.442 15.0419L145.898 11.3648C146.07 11.2162 146.155 11.1419 146.155 10.8819C146.155 10.5848 145.941 10.399 145.555 10.399H141.828C141.485 10.399 141.228 10.1762 141.228 9.87904V6.75904C141.228 6.49904 140.971 6.23904 140.628 6.23904H140.285C140.114 6.23904 139.985 6.27618 139.857 6.38761L135.701 10.2505C135.572 10.3619 135.443 10.399 135.272 10.399H124.69C124.39 10.399 124.09 10.6219 124.09 10.919V16.5276C124.09 16.899 123.833 17.0848 123.19 17.0848H117.877C117.491 17.0848 117.277 16.899 117.277 16.5648V15.339H117.278Z" fill="white"/>
<path d="M21.9732 13.7633C21.6937 13.5989 21.3605 13.5163 20.9727 13.5163C20.585 13.5163 20.239 13.5989 19.9562 13.7633C19.6734 13.9277 19.457 14.1654 19.3081 14.4755C19.1592 14.7857 19.0842 15.1636 19.0842 15.6093C19.0842 16.055 19.1571 16.4292 19.3017 16.7329C19.4474 17.0365 19.6627 17.2687 19.9498 17.4302C20.2368 17.5918 20.5775 17.6754 20.9727 17.6819C21.368 17.6754 21.7022 17.5937 21.9786 17.4349C22.2539 17.277 22.4628 17.0412 22.6042 16.7273C22.7456 16.4144 22.8205 16.0383 22.828 15.5991C22.8205 15.1534 22.7456 14.7773 22.6042 14.4709C22.4628 14.1644 22.2517 13.9286 21.9732 13.7633Z" fill="#653DF5"/>
<path d="M27.8092 5.1991H13.1103C12.5104 5.1991 12.3819 5.23624 12.0391 5.53338L0.385629 14.8925C0.0428476 15.1896 0 15.301 0 15.821V21.3182C0 24.4372 1.7996 25.9972 5.3988 25.9972H20.0977C20.6965 25.9972 20.825 25.9601 21.1678 25.663L32.8224 16.3039C33.1641 16.0067 33.2069 15.8953 33.2069 15.3753V9.8791C33.2069 6.7591 31.4084 5.1991 27.8092 5.1991ZM14.911 18.3635C14.2586 18.825 13.3749 19.0562 12.2566 19.0562C11.3996 19.0562 10.6701 18.9206 10.066 18.6495C9.4629 18.3783 9.00015 17.9846 8.67986 17.4674C8.35957 16.9511 8.20318 16.3336 8.21068 15.6177C8.20318 14.8878 8.35743 14.262 8.67451 13.7382C8.99158 13.2155 9.45647 12.818 10.0713 12.5469C10.6862 12.2757 11.4135 12.1402 12.2555 12.1402C12.9775 12.1402 13.6127 12.2432 14.1611 12.4503C14.7085 12.6574 15.1424 12.9573 15.4626 13.351C15.7829 13.7447 15.9693 14.2165 16.0218 14.7652H13.798C13.7091 14.391 13.5281 14.1032 13.256 13.9035C12.9839 13.703 12.6315 13.5999 12.1998 13.5934C11.8345 13.5999 11.5164 13.6788 11.2443 13.8311C10.9722 13.9825 10.7633 14.209 10.6187 14.509C10.473 14.8089 10.4013 15.1757 10.4013 15.6084C10.4013 16.0411 10.472 16.4144 10.6134 16.7078C10.7548 17.0022 10.9636 17.2241 11.2389 17.3764C11.5142 17.5277 11.8345 17.6039 12.1998 17.6039C12.639 17.6039 12.9946 17.5008 13.2667 17.2937C13.5388 17.0867 13.723 16.7997 13.8194 16.432H16.0432C15.9393 17.2585 15.5612 17.9029 14.9088 18.3644L14.911 18.3635ZM24.5153 17.472C24.2025 17.992 23.7462 18.3857 23.1463 18.6541C22.5464 18.9225 21.8223 19.0562 20.9728 19.0562C20.1234 19.0562 19.3864 18.9206 18.7823 18.6495C18.1792 18.3783 17.7164 17.9846 17.3961 17.4674C17.0759 16.9511 16.9195 16.3308 16.927 15.6075C16.9195 14.8841 17.0737 14.261 17.3908 13.7382C17.7079 13.2155 18.1695 12.818 18.7769 12.5469C19.3843 12.2757 20.1159 12.1402 20.9728 12.1402C21.8298 12.1402 22.5357 12.2757 23.1356 12.5469C23.7354 12.818 24.1928 13.2136 24.5099 13.7336C24.827 14.2536 24.9887 14.8785 24.9962 15.6084C24.9887 16.3317 24.8291 16.953 24.5153 17.473V17.472Z" fill="#653DF5"/>
</svg>
