<svg width="16" height="11" viewBox="0 0 16 11" fill="none" xmlns="http://www.w3.org/2000/svg">
<path fill-rule="evenodd" clip-rule="evenodd" d="M6.17829 7.41333L6.17752 3.08648L10.3848 5.25791L6.17829 7.4141V7.41333ZM15.4156 2.33676C15.4156 2.33676 15.2632 1.27543 14.797 0.808381C14.2042 0.194286 13.5406 0.191238 13.2366 0.15619C11.0575 0 7.78895 0 7.78895 0H7.78209C7.78209 0 4.51352 0 2.33448 0.15619C2.02971 0.191238 1.36686 0.194286 0.774095 0.808381C0.30781 1.27543 0.155429 2.33676 0.155429 2.33676C0.155429 2.33676 0 3.58324 0 4.82895V5.99771C0 7.24419 0.155429 8.49067 0.155429 8.49067C0.155429 8.49067 0.30781 9.55124 0.774095 10.019C1.36686 10.6324 2.14552 10.6133 2.49143 10.6773C3.73714 10.7954 7.7859 10.832 7.7859 10.832C7.7859 10.832 11.0575 10.8274 13.2366 10.672C13.5413 10.6354 14.2042 10.6324 14.797 10.019C15.2632 9.55124 15.4156 8.49067 15.4156 8.49067C15.4156 8.49067 15.571 7.24419 15.571 5.99771V4.82895C15.571 3.58324 15.4156 2.33676 15.4156 2.33676Z" fill="#F1F0F5"/>
</svg>
